<?xml version="1.0" encoding="UTF-8"?>
<svg version="1.1" xmlns="http://www.w3.org/2000/svg" width="1024" height="1024">
<path d="M0 0 C3.94543177 7.21730892 6.44502309 14.82353624 9 22.609375 C9.4765486 24.04655838 9.95364183 25.48356126 10.4312439 26.9203949 C11.6990768 30.73930729 12.95966025 34.56057581 14.21892548 38.3823204 C15.52887037 42.35317044 16.84600503 46.32163343 18.16259766 50.2902832 C20.21619977 56.48295822 22.26656931 62.67669091 24.31347656 68.87158203 C27.32324835 77.98046416 30.34281283 87.08605371 33.375 96.1875 C33.59621521 96.85206207 33.81743042 97.51662415 34.04534912 98.20132446 C40.14731819 116.52411239 46.3950154 134.79780765 52.6244812 153.07752991 C55.25879191 160.81206237 57.8784809 168.55145217 60.4921875 176.29296875 C87.2151532 257.10802678 87.2151532 257.10802678 119 336 C119.36383789 336.8264502 119.72767578 337.65290039 120.10253906 338.50439453 C123.90153673 347.11417443 127.96217329 354.99185993 133.43359375 362.6796875 C135 365 135 365 136 368 C138.00016466 369.20882096 138.00016466 369.20882096 140 370 C140 370.66 140 371.32 140 372 C140.7734375 372.37125 140.7734375 372.37125 141.5625 372.75 C143.55391875 373.77124038 145.50308136 374.87452006 147.4375 376 C150.21334903 377.60329211 152.98023812 378.90190477 156 380 C156 383.3 156 386.6 156 390 C153.52761759 391.23619121 151.90047743 391.12582049 149.1346283 391.12698364 C148.10679733 391.12980347 147.07896637 391.13262329 146.01998901 391.13552856 C144.88796051 391.13350433 143.75593201 391.1314801 142.58959961 391.12939453 C141.40097824 391.13114685 140.21235687 391.13289917 138.98771667 391.13470459 C135.72339561 391.13835866 132.4591149 391.13749241 129.19479442 391.1343255 C125.78396057 391.13179883 122.37312948 391.13414025 118.96229553 391.13571167 C113.23486851 391.13753222 107.50745437 391.1351298 101.7800293 391.13037109 C95.1498664 391.1249261 88.51973424 391.12669331 81.88957208 391.1321975 C76.20463482 391.1367288 70.51970684 391.13737917 64.83476835 391.13475883 C61.43600781 391.13319648 58.03726174 391.13300118 54.63850212 391.13629532 C50.85264854 391.13881995 47.06685495 391.13498404 43.28100586 391.12939453 C42.14695312 391.13141876 41.01290039 391.13344299 39.84448242 391.13552856 C38.81947128 391.13270874 37.79446014 391.12988892 36.73838806 391.12698364 C35.84223754 391.12660662 34.94608702 391.12622959 34.02278042 391.12584114 C32 391 32 391 31 390 C30.95907063 387.66702567 30.95758277 385.33294775 31 383 C30.34 382.67 29.68 382.34 29 382 C32.3978158 379.83105067 35.61510975 378.32578642 39.4375 377.0625 C46.06540354 374.71066326 51.02331601 371.96502598 55 366 C58.8273809 357.77113107 57.21291271 349.12699106 54.359375 340.8828125 C54.08116913 340.040103 53.80296326 339.19739349 53.5163269 338.32914734 C52.60818419 335.58954642 51.67933662 332.85747597 50.75 330.125 C50.10981126 328.20707581 49.47099415 326.28869327 48.83349609 324.36987305 C47.53293321 320.46334388 46.22398511 316.55979104 44.90722656 312.65869141 C43.14877241 307.44827248 41.41015813 302.23148865 39.6796875 297.01171875 C35.97413682 285.84444719 32.2493249 274.68382059 28.4765625 263.5390625 C28.09677246 262.41266357 27.71698242 261.28626465 27.32568359 260.12573242 C26.6320516 258.06986765 25.93473513 256.01524052 25.23291016 253.9621582 C24.7850415 252.63317505 24.7850415 252.63317505 24.328125 251.27734375 C24.0693457 250.51671631 23.81056641 249.75608887 23.54394531 248.97241211 C23 247 23 247 23 244 C22.360625 243.690625 21.72125 243.38125 21.0625 243.0625 C19 242 19 242 18 241 C15.86136374 240.94555153 13.72079507 240.96644177 11.58203125 241.015625 C10.91039444 241.03089737 10.23875763 241.04616974 9.54676819 241.06190491 C7.30173271 241.11690706 5.05718229 241.18213888 2.8125 241.25 C2.03658508 241.27266937 1.26067017 241.29533875 0.46124268 241.31869507 C-29.11659251 242.21703966 -58.70904246 244.76268787 -88 249 C-89.36946777 249.13365967 -89.36946777 249.13365967 -90.76660156 249.27001953 C-93.15575512 249.78869461 -93.15575512 249.78869461 -94.23510742 251.94824219 C-94.66593628 253.23456543 -94.66593628 253.23456543 -95.10546875 254.546875 C-95.44352539 255.52100342 -95.78158203 256.49513184 -96.12988281 257.4987793 C-96.47889648 258.57168213 -96.82791016 259.64458496 -97.1875 260.75 C-97.57131836 261.87253174 -97.95513672 262.99506348 -98.35058594 264.15161133 C-99.16913319 266.55017976 -99.97893173 268.95174847 -100.78076172 271.35595703 C-101.94596398 274.83849786 -103.13996968 278.30933509 -104.34765625 281.77734375 C-105.99049647 286.49533874 -107.61848127 291.21802023 -109.234375 295.9453125 C-110.98800198 301.07552668 -112.76526515 306.19697311 -114.55889893 311.31333923 C-115.75223225 314.72141726 -116.93765685 318.13222108 -118.12219238 321.54336548 C-118.69978424 323.20094005 -119.28066975 324.85737122 -119.8651123 326.51254272 C-126.83746076 344.47183493 -126.83746076 344.47183493 -125 363 C-123.04543223 366.30859472 -123.04543223 366.30859472 -121 369 C-120.505 370.485 -120.505 370.485 -120 372 C-118.24190778 373.10704704 -118.24190778 373.10704704 -116 374 C-105.62005338 378.61004702 -105.62005338 378.61004702 -104.0625 382.1015625 C-103.8125 384.25 -103.8125 384.25 -104 388 C-104 388.66 -104 389.32 -104 390 C-108.56797468 391.15234778 -113.05970185 391.13418044 -117.73754883 391.11352539 C-118.60634674 391.11367142 -119.47514465 391.11381744 -120.37026978 391.1139679 C-123.23254929 391.11327306 -126.09476315 391.10550073 -128.95703125 391.09765625 C-130.94528671 391.09579055 -132.93354262 391.09436736 -134.92179871 391.09336853 C-140.14799271 391.08955534 -145.3741588 391.07973528 -150.6003418 391.06866455 C-155.93603132 391.05842467 -161.27172536 391.05386539 -166.60742188 391.04882812 C-177.07162683 391.03811194 -187.53581109 391.0210499 -198 391 C-198 387.37 -198 383.74 -198 380 C-197.02160156 379.72027344 -196.04320312 379.44054687 -195.03515625 379.15234375 C-186.82449333 376.68977388 -180.26227826 374.09545527 -174 368 C-173.4121875 367.43925781 -172.824375 366.87851562 -172.21875 366.30078125 C-154.38464968 347.61550796 -146.45045863 318.84597453 -137.125 295.375 C-136.71058655 294.33393097 -136.2961731 293.29286194 -135.86920166 292.22024536 C-131.24447024 280.58005871 -126.75652844 268.95302196 -123 257 C-126.14038014 255.10963958 -127.83216731 254.81895621 -131.39453125 255.6171875 C-132.25618896 255.80772705 -133.11784668 255.9982666 -134.00561523 256.19458008 C-134.93188721 256.41911865 -135.85815918 256.64365723 -136.8125 256.875 C-138.26281616 257.21857544 -138.26281616 257.21857544 -139.74243164 257.5690918 C-157.46472353 261.93863956 -174.72799902 267.81866601 -190 278 C-192.4375 278.5 -192.4375 278.5 -195 278 C-197.46076561 275.21544944 -199.04470215 273.38576667 -198.921875 269.578125 C-194.99113094 258.5853662 -174.83394421 251.03616332 -165.13525391 246.41650391 C-128.79937952 230 -128.79937952 230 -112 230 C-111.85739746 229.48550293 -111.71479492 228.97100586 -111.56787109 228.44091797 C-108.99943186 219.52538016 -105.78030764 210.84483617 -102.625 202.125 C-101.9985509 200.38769627 -101.37233419 198.65030873 -100.74633789 196.9128418 C-99.14267636 192.4638333 -97.53588609 188.01596206 -95.92816162 183.56842041 C-94.49863448 179.61261508 -93.07166348 175.65588856 -91.64453125 171.69921875 C-88.69587551 163.52611147 -85.74292785 155.35455834 -82.78918457 147.18328857 C-78.81047576 136.17614297 -74.83452934 125.16800248 -70.86181641 114.15869141 C-69.53657499 110.48627222 -68.21059036 106.81412215 -66.88427734 103.14208984 C-58.33483058 79.46919834 -49.80002564 55.79241786 -41.50866699 32.02763367 C-41.04031603 30.69090373 -40.56816667 29.35549757 -40.09191895 28.02156067 C-38.83075632 24.47370152 -37.6641036 20.91891624 -36.59179688 17.30908203 C-36.22770721 16.14409935 -36.22770721 16.14409935 -35.85626221 14.95558167 C-35.39267422 13.46861084 -34.95343405 11.97374 -34.54364014 10.47105408 C-33.6226864 7.59364477 -32.77654371 5.45969781 -30.11735535 3.88551331 C-28.08870106 3.11057063 -26.1100697 2.50728692 -24 2 C-22.64841797 1.63841797 -22.64841797 1.63841797 -21.26953125 1.26953125 C-14.14151577 -0.05634762 -7.23824417 -0.20713576 0 0 Z M-34 71 C-39.53330663 86.20359553 -44.87213638 101.45682554 -49.95458984 116.81689453 C-56.33393431 136.09165868 -62.86351162 155.31542174 -69.38396835 174.54278088 C-70.53237816 177.92944108 -71.68038879 181.31623645 -72.828125 184.703125 C-73.04945351 185.35620951 -73.27078201 186.00929401 -73.49881744 186.68216896 C-77.70843094 199.10729468 -81.86890066 211.54856158 -86 224 C-76.40197939 223.47353797 -66.95721238 222.41458595 -57.43725586 221.10424805 C-51.73147462 220.32535736 -46.04408123 219.70327424 -40.30151367 219.26367188 C-37.84266038 219.06210544 -37.84266038 219.06210544 -35 218 C-33.27902007 217.86198011 -31.55370974 217.7751299 -29.828125 217.71875 C-28.78124512 217.68193115 -27.73436523 217.6451123 -26.65576172 217.60717773 C-25.53186035 217.57180908 -24.40795898 217.53644043 -23.25 217.5 C-20.90362672 217.41851727 -18.55727285 217.33647382 -16.2109375 217.25390625 C-15.01694336 217.21281738 -13.82294922 217.17172852 -12.59277344 217.12939453 C-7.01885475 216.92864862 -1.44700624 216.68506613 4.125 216.4375 C5.61725098 216.37175781 5.61725098 216.37175781 7.13964844 216.3046875 C9.42646026 216.20373888 11.71324429 216.10221055 14 216 C13.65066406 214.89140625 13.30132813 213.7828125 12.94140625 212.640625 C12.48171006 211.17710242 12.022078 209.7135597 11.5625 208.25 C11.33240234 207.52039063 11.10230469 206.79078125 10.86523438 206.0390625 C10.53168945 204.97558594 10.53168945 204.97558594 10.19140625 203.890625 C9.98717041 203.24125977 9.78293457 202.59189453 9.57250977 201.92285156 C9.20201043 200.67847939 8.86049551 199.42495181 8.55439758 198.16319275 C7.97332191 195.89590528 7.28397081 193.69086151 6.55712891 191.46606445 C6.1212999 190.12865959 6.1212999 190.12865959 5.67666626 188.76423645 C5.36313202 187.80692123 5.04959778 186.84960602 4.7265625 185.86328125 C4.23994644 184.37226143 4.23994644 184.37226143 3.74349976 182.85112 C2.70528548 179.67115842 1.66513329 176.49183433 0.625 173.3125 C-0.06782827 171.19079437 -0.76053792 169.06905 -1.453125 166.94726562 C-4.7077615 156.98221377 -7.97296411 147.02159901 -11.31640625 137.0859375 C-11.72761719 135.86132812 -12.13882813 134.63671875 -12.5625 133.375 C-12.97628906 132.14523437 -13.39007812 130.91546875 -13.81640625 129.6484375 C-14.55143938 127.3826918 -15.25222246 125.10515859 -15.8984375 122.8125 C-17.47180001 117.36710353 -19.27122985 112.00201487 -21.0625 106.625 C-21.42666016 105.52027344 -21.79082031 104.41554688 -22.16601562 103.27734375 C-22.51470703 102.22933594 -22.86339844 101.18132812 -23.22265625 100.1015625 C-23.53984619 99.14588379 -23.85703613 98.19020508 -24.18383789 97.20556641 C-24.80464553 95.05610147 -24.80464553 95.05610147 -26 94 C-26.42055136 92.24770267 -26.84041911 90.49523974 -27.2578125 88.7421875 C-28.88160678 82.74269496 -30.99390904 76.88044985 -33 71 C-33.33 71 -33.66 71 -34 71 Z M21 241 C22 243 22 243 22 243 Z " fill="#977A5A" transform="translate(533,287)"/>
<path d="M0 0 C0.66 0 1.32 0 2 0 C2.32685791 1.01610352 2.65371582 2.03220703 2.99047852 3.07910156 C4.51131753 7.80375849 6.03658423 12.52698067 7.5625 17.25 C7.83533813 18.09546387 8.10817627 18.94092773 8.38928223 19.81201172 C11.80117113 30.37571558 15.23066129 40.92468916 19.11938477 51.32519531 C20.46259329 55.00403044 21.33796733 58.06728925 21 62 C19.30647161 59.45970742 18.41548889 57.65803456 17.44140625 54.8359375 C17.14298828 53.97645508 16.84457031 53.11697266 16.53710938 52.23144531 C16.21548828 51.28881836 15.89386719 50.34619141 15.5625 49.375 C15.22412109 48.39112305 14.88574219 47.40724609 14.53710938 46.39355469 C13.35099434 42.93140963 12.17470512 39.46603297 11 36 C10.51677047 34.57779739 10.03353453 33.15559696 9.55029297 31.73339844 C8.27832933 27.98613414 7.01304688 24.23666433 5.75216675 20.48565674 C5.25117212 18.99655607 4.74883445 17.50790658 4.24514771 16.01971436 C3.53388512 13.91567881 2.82864559 11.80971818 2.125 9.703125 C1.71507812 8.48270508 1.30515625 7.26228516 0.8828125 6.00488281 C0 3 0 3 0 0 Z " fill="#936E45" transform="translate(547,331)"/>
<path d="M0 0 C1.98 0.99 1.98 0.99 4 2 C4 2.66 4 3.32 4 4 C5.32 4.66 6.64 5.32 8 6 C8 6.66 8 7.32 8 8 C8.515625 8.2475 9.03125 8.495 9.5625 8.75 C11.55391875 9.77124038 13.50308136 10.87452006 15.4375 12 C18.21334903 13.60329211 20.98023812 14.90190477 24 16 C24 19.3 24 22.6 24 26 C23.34 25.67 22.68 25.34 22 25 C22 22.36 22 19.72 22 17 C21.030625 16.814375 20.06125 16.62875 19.0625 16.4375 C11.45932034 14.26736168 5.19280634 7.72540186 0 2 C0 1.34 0 0.68 0 0 Z " fill="#987145" transform="translate(665,651)"/>
<path d="M0 0 C0.66 0 1.32 0 2 0 C3.55553555 4.01741605 5.10352406 8.03763595 6.64477539 12.06054688 C7.16943416 13.42688952 7.6960982 14.792464 8.22485352 16.15722656 C8.98730588 18.12623645 9.74235226 20.09795425 10.49609375 22.0703125 C10.95169678 23.25383301 11.4072998 24.43735352 11.87670898 25.65673828 C12.92907095 28.7888932 13.56256566 31.73121205 14 35 C11.16290218 31.63409401 9.71229263 28.15085103 8.125 24.0625 C7.74190674 23.07975098 7.74190674 23.07975098 7.35107422 22.07714844 C6.82391171 20.72252032 6.29934715 19.36687842 5.77734375 18.01025391 C5.03039131 16.0785936 4.26793745 14.15386764 3.5 12.23046875 C2.819375 10.50763672 2.819375 10.50763672 2.125 8.75 C1.71507812 7.71359375 1.30515625 6.6771875 0.8828125 5.609375 C0 3 0 3 0 0 Z " fill="#936D43" transform="translate(632,578)"/>
<path d="M0 0 C2.51620531 1.25810265 2.80835636 2.30353155 4 4.8125 C4.495 5.84310547 4.495 5.84310547 5 6.89453125 C5.66328033 8.29104726 6.28911442 9.70600709 6.875 11.13671875 C8.29823846 13.49395745 9.48895082 13.92256401 12 15 C13.75797562 16.02814938 15.50772427 17.07046469 17.25 18.125 C18.14203125 18.66382813 19.0340625 19.20265625 19.953125 19.7578125 C20.62859375 20.16773438 21.3040625 20.57765625 22 21 C21.67 21.66 21.34 22.32 21 23 C12.80694152 18.95532556 5.01109306 14.89323366 1.0625 6.25 C0 3 0 3 0 0 Z " fill="#967047" transform="translate(405,646)"/>
<path d="M0 0 C4.29 0 8.58 0 13 0 C19.39084507 12.3556338 19.39084507 12.3556338 19 19 C17 18 17 18 15.7109375 14.62109375 C15.25801276 13.22901623 14.81302387 11.83433776 14.375 10.4375 C14.14554688 9.72658203 13.91609375 9.01566406 13.6796875 8.28320312 C13.11305792 6.52429047 12.55565742 4.76240961 12 3 C8.04 2.67 4.08 2.34 0 2 C0 1.34 0 0.68 0 0 Z " fill="#977046" transform="translate(520,287)"/>
<path d="M0 0 C0 0.66 0 1.32 0 2 C-1 3 -2 4 -3 5 C-3.33 5.99 -3.66 6.98 -4 8 C-0.535 7.505 -0.535 7.505 3 7 C3.33 7.66 3.66 8.32 4 9 C0.7 9 -2.6 9 -6 9 C-6.33 9.66 -6.66 10.32 -7 11 C-7 7.37 -7 3.74 -7 0 C-3.86650268 -1.04449911 -3.01031744 -0.93423645 0 0 Z " fill="#A2835F" transform="translate(342,667)"/>
<path d="M0 0 C0.598125 0.20625 1.19625 0.4125 1.8125 0.625 C0.8225 1.12 0.8225 1.12 -0.1875 1.625 C-0.5175 3.935 -0.8475 6.245 -1.1875 8.625 C4.7525 8.625 10.6925 8.625 16.8125 8.625 C16.8125 8.955 16.8125 9.285 16.8125 9.625 C10.4462104 10.36928438 4.2247015 10.82856195 -2.1875 10.625 C-3.1875 9.625 -3.1875 9.625 -3.25 6.0625 C-3.229375 4.928125 -3.20875 3.79375 -3.1875 2.625 C-3.8475 2.295 -4.5075 1.965 -5.1875 1.625 C-2.1875 -0.375 -2.1875 -0.375 0 0 Z " fill="#986F42" transform="translate(567.1875,667.375)"/>
<path d="M0 0 C3.92768629 1.96384314 4.70999804 7.79999452 6.125 11.75 C6.49753906 12.75289063 6.87007812 13.75578125 7.25390625 14.7890625 C7.60582031 15.76101563 7.95773437 16.73296875 8.3203125 17.734375 C8.64273926 18.62350586 8.96516602 19.51263672 9.29736328 20.42871094 C10.01975447 23.0722912 10.13183936 25.27368471 10 28 C7.58220426 25.58220426 7.13957116 23.75333563 6.125 20.5 C4.55795018 15.59855093 2.77983345 10.87653874 0.734375 6.15625 C0 4 0 4 0 0 Z " fill="#906B43" transform="translate(604,499)"/>
<path d="M0 0 C2.46301423 2.46301423 2.76766521 4.27360036 3.625 7.625 C4.01558594 9.12933594 4.01558594 9.12933594 4.4140625 10.6640625 C4.60742188 11.43492187 4.80078125 12.20578125 5 13 C1.88248002 13.93714922 -0.74149909 14.05686895 -3.984375 13.87890625 C-4.91894531 13.83056641 -5.85351562 13.78222656 -6.81640625 13.73242188 C-7.78449219 13.67634766 -8.75257813 13.62027344 -9.75 13.5625 C-10.73355469 13.51029297 -11.71710937 13.45808594 -12.73046875 13.40429688 C-15.15398849 13.27488563 -17.57706864 13.13993095 -20 13 C-20 12.67 -20 12.34 -20 12 C-12.74 11.67 -5.48 11.34 2 11 C1.34 9.02 0.68 7.04 0 5 C-0.125 2.125 -0.125 2.125 0 0 Z " fill="#AA8559" transform="translate(544,491)"/>
<path d="M0 0 C1.07894531 -0.02126953 1.07894531 -0.02126953 2.1796875 -0.04296875 C4.49330624 0.23113467 6.11103448 1.04504871 8.125 2.1875 C7.135 2.5175 6.145 2.8475 5.125 3.1875 C4.795 3.8475 4.465 4.5075 4.125 5.1875 C3.795 4.1975 3.465 3.2075 3.125 2.1875 C-5.785 2.1875 -14.695 2.1875 -23.875 2.1875 C-23.875 1.8575 -23.875 1.5275 -23.875 1.1875 C-6.49207921 0.12710396 -6.49207921 0.12710396 0 0 Z " fill="#896540" transform="translate(548.875,524.8125)"/>
<path d="M0 0 C1 2 1 2 0.47094727 4.15478516 C0.02319946 5.45875244 0.02319946 5.45875244 -0.43359375 6.7890625 C-0.75263672 7.73007812 -1.07167969 8.67109375 -1.40039062 9.640625 C-1.74263672 10.62546875 -2.08488281 11.6103125 -2.4375 12.625 C-2.77587891 13.61757813 -3.11425781 14.61015625 -3.46289062 15.6328125 C-4.30195087 18.09090448 -5.14790691 20.54640157 -6 23 C-6.66 23 -7.32 23 -8 23 C-6.99066855 18.18626539 -5.89905557 13.42172052 -4.5625 8.6875 C-4.33691406 7.88699219 -4.11132812 7.08648437 -3.87890625 6.26171875 C-2.922391 3.80028616 -1.66980928 2.03260906 0 0 Z " fill="#947049" transform="translate(499,355)"/>
<path d="M0 0 C3.20005429 1.60002714 3.45105531 4.40251441 4.625 7.6875 C5.07101562 8.90824219 5.51703125 10.12898438 5.9765625 11.38671875 C6.94601649 14.80940936 7.205988 17.47110033 7 21 C4.71056844 18.71056844 4.35896374 17.33106561 3.5 14.25 C2.66640791 11.31761768 1.80863661 8.44605335 0.8125 5.5625 C0 3 0 3 0 0 Z " fill="#936E45" transform="translate(576,417)"/>
<path d="M0 0 C0.66 0 1.32 0 2 0 C-2.5648415 16.5648415 -2.5648415 16.5648415 -7 21 C-6.38169051 15.97525707 -4.87023224 11.75279506 -2.9375 7.125 C-2.65583984 6.43664062 -2.37417969 5.74828125 -2.08398438 5.0390625 C-1.39484734 3.35710091 -0.69819202 1.67822303 0 0 Z " fill="#936D44" transform="translate(392,592)"/>
<path d="M0 0 C1.6645255 2.49678825 2.44736157 4.02421568 3.2890625 6.79296875 C3.50820313 7.50517578 3.72734375 8.21738281 3.953125 8.95117188 C4.17484375 9.68916016 4.3965625 10.42714844 4.625 11.1875 C4.85445313 11.93708984 5.08390625 12.68667969 5.3203125 13.45898438 C5.88459381 15.30465449 6.44288216 17.15215496 7 19 C6.34 19.66 5.68 20.32 5 21 C4.15520547 18.62854106 3.32406717 16.25365876 2.5 13.875 C2.14228516 12.87726563 2.14228516 12.87726563 1.77734375 11.859375 C0.37291194 7.76645945 -0.27343814 4.38868208 0 0 Z " fill="#947048" transform="translate(501,358)"/>
<path d="M0 0 C-2.7881022 1.5066972 -5.58103958 3.00419804 -8.375 4.5 C-9.1690625 4.92925781 -9.963125 5.35851562 -10.78125 5.80078125 C-11.92207031 6.40986328 -11.92207031 6.40986328 -13.0859375 7.03125 C-13.7876709 7.40830078 -14.4894043 7.78535156 -15.21240234 8.17382812 C-17 9 -17 9 -19 9 C-19 8.34 -19 7.68 -19 7 C-16.59087645 5.63063499 -14.17425815 4.27958007 -11.75 2.9375 C-11.06808594 2.54755859 -10.38617188 2.15761719 -9.68359375 1.75585938 C-9.01972656 1.39169922 -8.35585938 1.02753906 -7.671875 0.65234375 C-7.0644043 0.31195068 -6.45693359 -0.02844238 -5.83105469 -0.37915039 C-3.53906176 -1.15628879 -2.25542675 -0.76849965 0 0 Z " fill="#946D43" transform="translate(369,536)"/>
<path d="M0 0 C-1.51761303 3.82852379 -3.79343415 5.73321866 -7 8.25 C-7.886875 8.95640625 -8.77375 9.6628125 -9.6875 10.390625 C-12 12 -12 12 -14 12 C-14 11.34 -14 10.68 -14 10 C-12.13671875 8.37890625 -12.13671875 8.37890625 -9.6875 6.5625 C-6.36091496 4.09023023 -6.36091496 4.09023023 -3.33203125 1.27734375 C-2 0 -2 0 0 0 Z " fill="#997248" transform="translate(364,652)"/>
<path d="M0 0 C4.29 0 8.58 0 13 0 C13.33 1.32 13.66 2.64 14 4 C13.34 3.67 12.68 3.34 12 3 C9.9625237 2.77141886 7.91959697 2.58975722 5.875 2.4375 C4.23144531 2.31181641 4.23144531 2.31181641 2.5546875 2.18359375 C1.71164062 2.12300781 0.86859375 2.06242187 0 2 C0 1.34 0 0.68 0 0 Z " fill="#A0794A" transform="translate(520,287)"/>
<path d="M0 0 C1.65 0 3.3 0 5 0 C4.67 0.66 4.34 1.32 4 2 C3.34 2 2.68 2 2 2 C2.04125 3.11375 2.0825 4.2275 2.125 5.375 C2 9 2 9 0 11 C0 7.37 0 3.74 0 0 Z " fill="#A07747" transform="translate(335,667)"/>
<path d="M0 0 C2.64 0 5.28 0 8 0 C7.505 0.639375 7.01 1.27875 6.5 1.9375 C4.90197138 3.70974339 4.90197138 3.70974339 5 5 C3.35 5 1.7 5 0 5 C0 3.33333333 0 1.66666667 0 0 Z " fill="#A4815A" transform="translate(338,560)"/>
<path d="M0 0 C0.66 0 1.32 0 2 0 C0.7978674 4.67496012 -1.54132113 6.46383341 -5.34375 9.08203125 C-7 10 -7 10 -9 10 C-9 9.34 -9 8.68 -9 8 C-7 6.66666667 -5 5.33333333 -3 4 C-1.97676564 2.68441297 -0.96873032 1.35622245 0 0 Z " fill="#926B41" transform="translate(587,654)"/>
<path d="M0 0 C1.32 0.33 2.64 0.66 4 1 C-0.455 4.465 -0.455 4.465 -5 8 C-5.66 7.67 -6.32 7.34 -7 7 C-4.66666667 4.66666667 -2.33333333 2.33333333 0 0 Z " fill="#916D43" transform="translate(345,546)"/>
<path d="M0 0 C0.66 0 1.32 0 2 0 C1.67 2.97 1.34 5.94 1 9 C0.01 9.33 -0.98 9.66 -2 10 C-1.125 2.25 -1.125 2.25 0 0 Z " fill="#946F49" transform="translate(480,352)"/>
<path d="M0 0 C1.98 0.99 1.98 0.99 4 2 C4 2.66 4 3.32 4 4 C4.99 4.33 5.98 4.66 7 5 C6.67 5.99 6.34 6.98 6 8 C4.99403703 7.0479279 3.99538437 6.08812654 3 5.125 C2.443125 4.59132813 1.88625 4.05765625 1.3125 3.5078125 C0 2 0 2 0 0 Z " fill="#946E43" transform="translate(665,651)"/>
<path d="M0 0 C3.3 0 6.6 0 10 0 C10 0.99 10 1.98 10 3 C5.06071112 3.3367697 4.21507278 3.16130459 0 0 Z " fill="#A4835C" transform="translate(484,506)"/>
<path d="M0 0 C0.66 0 1.32 0 2 0 C1.46930939 3.82097239 0.50298434 6.06171403 -2 9 C-1.125 2.25 -1.125 2.25 0 0 Z " fill="#94704A" transform="translate(403,564)"/>
<path d="M0 0 C3.2542015 2.83430453 4.5206753 4.68607774 5 9 C2.9754262 7.06745228 1.57894208 5.36841312 0 3 C0 2.01 0 1.02 0 0 Z " fill="#926C44" transform="translate(658,639)"/>
<path d="M0 0 C1 4 1 4 1 4 Z " fill="#BD996B" transform="translate(480,344)"/>
<path d="M0 0 C0.99 0.495 0.99 0.495 2 1 C1.01 1.495 1.01 1.495 0 2 C0 1.34 0 0.68 0 0 Z " fill="#C29A63" transform="translate(561,675)"/>
<path d="M0 0 C3 1 3 1 3 1 Z " fill="#C29E6D" transform="translate(568,664)"/>
<path d="" fill="#C19C6B" transform="translate(0,0)"/>
<path d="M0 0 C3 1 3 1 3 1 Z " fill="#C29E6E" transform="translate(376,528)"/>
<path d="" fill="#BF9B6C" transform="translate(0,0)"/>
<path d="" fill="#BE9A6C" transform="translate(0,0)"/>
<path d="M0 0 C3 1 3 1 3 1 Z " fill="#C3985E" transform="translate(529,285)"/>
<path d="M0 0 C2 1 2 1 2 1 Z " fill="#C39A62" transform="translate(562,677)"/>
<path d="M0 0 C2 1 2 1 2 1 Z " fill="#BA9464" transform="translate(685,664)"/>
<path d="M0 0 C2 1 2 1 2 1 Z " fill="#C09764" transform="translate(424,664)"/>
<path d="" fill="#C09A6B" transform="translate(0,0)"/>
<path d="" fill="#C39D6B" transform="translate(0,0)"/>
<path d="" fill="#BC9769" transform="translate(0,0)"/>
<path d="" fill="#BD996C" transform="translate(0,0)"/>
<path d="" fill="#C29D6B" transform="translate(0,0)"/>
<path d="M0 0 C2 1 2 1 2 1 Z " fill="#C49E6D" transform="translate(472,533)"/>
<path d="" fill="#C09B6A" transform="translate(0,0)"/>
<path d="M0 0 C2 1 2 1 2 1 Z " fill="#C3A072" transform="translate(488,504)"/>
<path d="" fill="#C19C6D" transform="translate(0,0)"/>
<path d="" fill="#BF9B6D" transform="translate(0,0)"/>
<path d="" fill="#C39E6E" transform="translate(0,0)"/>
<path d="" fill="#C19E6D" transform="translate(0,0)"/>
<path d="" fill="#C29C6F" transform="translate(0,0)"/>
<path d="" fill="#C19C6E" transform="translate(0,0)"/>
<path d="" fill="#BD996C" transform="translate(0,0)"/>
<path d="" fill="#BD986C" transform="translate(0,0)"/>
<path d="" fill="#C09A67" transform="translate(0,0)"/>
<path d="" fill="#AE6200" transform="translate(0,0)"/>
<path d="" fill="#B06500" transform="translate(0,0)"/>
<path d="" fill="#B26600" transform="translate(0,0)"/>
<path d="" fill="#AF6200" transform="translate(0,0)"/>
<path d="" fill="#B16600" transform="translate(0,0)"/>
<path d="" fill="#AD6200" transform="translate(0,0)"/>
<path d="" fill="#AB5E00" transform="translate(0,0)"/>
<path d="" fill="#B66B00" transform="translate(0,0)"/>
<path d="" fill="#B46C00" transform="translate(0,0)"/>
<path d="" fill="#AB5F00" transform="translate(0,0)"/>
<path d="" fill="#B56C00" transform="translate(0,0)"/>
<path d="" fill="#B26400" transform="translate(0,0)"/>
<path d="" fill="#B76C00" transform="translate(0,0)"/>
<path d="" fill="#BA6F00" transform="translate(0,0)"/>
<path d="" fill="#B16500" transform="translate(0,0)"/>
<path d="" fill="#C37B08" transform="translate(0,0)"/>
<path d="" fill="#C37E0B" transform="translate(0,0)"/>
<path d="" fill="#C47E07" transform="translate(0,0)"/>
<path d="" fill="#C4800F" transform="translate(0,0)"/>
<path d="" fill="#C19660" transform="translate(0,0)"/>
<path d="" fill="#C49962" transform="translate(0,0)"/>
<path d="" fill="#C29A64" transform="translate(0,0)"/>
<path d="" fill="#C39C66" transform="translate(0,0)"/>
<path d="" fill="#C49967" transform="translate(0,0)"/>
<path d="" fill="#C29865" transform="translate(0,0)"/>
<path d="" fill="#C29B66" transform="translate(0,0)"/>
<path d="" fill="#BF9B6A" transform="translate(0,0)"/>
<path d="" fill="#BE996A" transform="translate(0,0)"/>
<path d="" fill="#C19C6A" transform="translate(0,0)"/>
<path d="" fill="#C09E70" transform="translate(0,0)"/>
<path d="" fill="#BB9665" transform="translate(0,0)"/>
<path d="" fill="#BC9969" transform="translate(0,0)"/>
<path d="" fill="#C49E68" transform="translate(0,0)"/>
<path d="" fill="#BF9B6B" transform="translate(0,0)"/>
<path d="" fill="#CC9F61" transform="translate(0,0)"/>
<path d="" fill="#C29B6C" transform="translate(0,0)"/>
<path d="" fill="#CA9F63" transform="translate(0,0)"/>
<path d="" fill="#C19C6C" transform="translate(0,0)"/>
<path d="" fill="#BC7200" transform="translate(0,0)"/>
<path d="" fill="#BF9D70" transform="translate(0,0)"/>
<path d="" fill="#C49D6B" transform="translate(0,0)"/>
<path d="" fill="#C59E6B" transform="translate(0,0)"/>
<path d="" fill="#C59E6B" transform="translate(0,0)"/>
<path d="" fill="#C69E69" transform="translate(0,0)"/>
<path d="" fill="#BD9B6D" transform="translate(0,0)"/>
<path d="" fill="#BD986C" transform="translate(0,0)"/>
<path d="" fill="#BE986A" transform="translate(0,0)"/>
<path d="" fill="#C39D6F" transform="translate(0,0)"/>
<path d="" fill="#BF9B6A" transform="translate(0,0)"/>
<path d="" fill="#C19C6C" transform="translate(0,0)"/>
<path d="" fill="#C29E71" transform="translate(0,0)"/>
<path d="" fill="#C59E6B" transform="translate(0,0)"/>
<path d="" fill="#BE9A69" transform="translate(0,0)"/>
<path d="" fill="#BE9B6E" transform="translate(0,0)"/>
<path d="" fill="#C29A6A" transform="translate(0,0)"/>
<path d="" fill="#C29A6A" transform="translate(0,0)"/>
<path d="" fill="#C0996A" transform="translate(0,0)"/>
<path d="" fill="#BD9A71" transform="translate(0,0)"/>
<path d="" fill="#C09C6D" transform="translate(0,0)"/>
<path d="" fill="#BF9C6E" transform="translate(0,0)"/>
<path d="" fill="#BD9767" transform="translate(0,0)"/>
<path d="" fill="#BC986C" transform="translate(0,0)"/>
<path d="" fill="#C19C6C" transform="translate(0,0)"/>
<path d="" fill="#C59D60" transform="translate(0,0)"/>
<path d="" fill="#C5A06B" transform="translate(0,0)"/>
<path d="" fill="#C29E6F" transform="translate(0,0)"/>
<path d="" fill="#C59F6D" transform="translate(0,0)"/>
<path d="" fill="#BF9B69" transform="translate(0,0)"/>
<path d="" fill="#C29A6B" transform="translate(0,0)"/>
<path d="" fill="#BC9A6D" transform="translate(0,0)"/>
<path d="" fill="#BB9768" transform="translate(0,0)"/>
<path d="" fill="#C19D6B" transform="translate(0,0)"/>
<path d="" fill="#C09967" transform="translate(0,0)"/>
<path d="" fill="#C09867" transform="translate(0,0)"/>
<path d="" fill="#C9A373" transform="translate(0,0)"/>
<path d="" fill="#C29B69" transform="translate(0,0)"/>
<path d="" fill="#C29D6F" transform="translate(0,0)"/>
<path d="" fill="#BD996B" transform="translate(0,0)"/>
<path d="" fill="#C39E6F" transform="translate(0,0)"/>
<path d="" fill="#C39D6D" transform="translate(0,0)"/>
<path d="" fill="#C09A6C" transform="translate(0,0)"/>
<path d="" fill="#C69F6C" transform="translate(0,0)"/>
<path d="" fill="#C8A06D" transform="translate(0,0)"/>
<path d="" fill="#C39D6B" transform="translate(0,0)"/>
<path d="" fill="#C79E67" transform="translate(0,0)"/>
<path d="" fill="#C9A06A" transform="translate(0,0)"/>
<path d="" fill="#C09D6C" transform="translate(0,0)"/>
<path d="" fill="#BD9B6C" transform="translate(0,0)"/>
<path d="" fill="#C59D6C" transform="translate(0,0)"/>
<path d="" fill="#BF9E6F" transform="translate(0,0)"/>
<path d="" fill="#C39D6E" transform="translate(0,0)"/>
<path d="" fill="#C39D6D" transform="translate(0,0)"/>
<path d="" fill="#C39E6E" transform="translate(0,0)"/>
<path d="" fill="#C19E6E" transform="translate(0,0)"/>
<path d="" fill="#C49F6D" transform="translate(0,0)"/>
<path d="" fill="#C39C6C" transform="translate(0,0)"/>
<path d="" fill="#C59F6A" transform="translate(0,0)"/>
<path d="" fill="#C59D67" transform="translate(0,0)"/>
<path d="" fill="#C69D6A" transform="translate(0,0)"/>
<path d="" fill="#C49B6E" transform="translate(0,0)"/>
<path d="" fill="#BF9B6B" transform="translate(0,0)"/>
<path d="" fill="#C09D6D" transform="translate(0,0)"/>
<path d="" fill="#C19B6E" transform="translate(0,0)"/>
<path d="" fill="#C29C69" transform="translate(0,0)"/>
<path d="" fill="#BE9B6C" transform="translate(0,0)"/>
<path d="" fill="#BD986B" transform="translate(0,0)"/>
<path d="" fill="#C09B6D" transform="translate(0,0)"/>
<path d="" fill="#BB976E" transform="translate(0,0)"/>
<path d="" fill="#BF9D6D" transform="translate(0,0)"/>
<path d="" fill="#BF9A68" transform="translate(0,0)"/>
<path d="" fill="#C27901" transform="translate(0,0)"/>
<path d="" fill="#BC976C" transform="translate(0,0)"/>
<path d="" fill="#C29A68" transform="translate(0,0)"/>
<path d="" fill="#C59E6B" transform="translate(0,0)"/>
<path d="" fill="#C19E6B" transform="translate(0,0)"/>
<path d="" fill="#BE9A6E" transform="translate(0,0)"/>
<path d="" fill="#C09C6B" transform="translate(0,0)"/>
<path d="" fill="#BD956A" transform="translate(0,0)"/>
<path d="" fill="#BF9A6E" transform="translate(0,0)"/>
<path d="" fill="#BE9769" transform="translate(0,0)"/>
<path d="" fill="#BF7500" transform="translate(0,0)"/>
<path d="" fill="#C09C68" transform="translate(0,0)"/>
<path d="" fill="#CE9846" transform="translate(0,0)"/>
<path d="" fill="#C19C6B" transform="translate(0,0)"/>
<path d="" fill="#BE9C6C" transform="translate(0,0)"/>
<path d="" fill="#C39C6B" transform="translate(0,0)"/>
<path d="" fill="#C19D6D" transform="translate(0,0)"/>
<path d="" fill="#BE9769" transform="translate(0,0)"/>
<path d="" fill="#BF9768" transform="translate(0,0)"/>
<path d="" fill="#C59E69" transform="translate(0,0)"/>
<path d="" fill="#C49D6D" transform="translate(0,0)"/>
<path d="" fill="#C29D6D" transform="translate(0,0)"/>
<path d="" fill="#C29E6E" transform="translate(0,0)"/>
<path d="" fill="#C19E6F" transform="translate(0,0)"/>
<path d="" fill="#C09C6E" transform="translate(0,0)"/>
<path d="" fill="#C19D6F" transform="translate(0,0)"/>
<path d="" fill="#BC9969" transform="translate(0,0)"/>
<path d="" fill="#C0996D" transform="translate(0,0)"/>
<path d="" fill="#C09A69" transform="translate(0,0)"/>
<path d="" fill="#BA986E" transform="translate(0,0)"/>
<path d="" fill="#BE9B6C" transform="translate(0,0)"/>
<path d="" fill="#C09B6D" transform="translate(0,0)"/>
<path d="" fill="#BF9B6B" transform="translate(0,0)"/>
<path d="" fill="#B79266" transform="translate(0,0)"/>
<path d="" fill="#C19B69" transform="translate(0,0)"/>
<path d="" fill="#C37C03" transform="translate(0,0)"/>
<path d="" fill="#C69C6A" transform="translate(0,0)"/>
<path d="" fill="#BA976A" transform="translate(0,0)"/>
<path d="" fill="#BC996A" transform="translate(0,0)"/>
<path d="" fill="#BE9967" transform="translate(0,0)"/>
<path d="" fill="#B79569" transform="translate(0,0)"/>
<path d="" fill="#B87000" transform="translate(0,0)"/>
<path d="" fill="#C07700" transform="translate(0,0)"/>
<path d="" fill="#C39C6C" transform="translate(0,0)"/>
<path d="" fill="#C09A6A" transform="translate(0,0)"/>
<path d="" fill="#B79366" transform="translate(0,0)"/>
<path d="" fill="#C6810F" transform="translate(0,0)"/>
<path d="" fill="#C39C67" transform="translate(0,0)"/>
<path d="" fill="#BA9867" transform="translate(0,0)"/>
<path d="" fill="#BD976A" transform="translate(0,0)"/>
<path d="" fill="#C19A67" transform="translate(0,0)"/>
<path d="" fill="#B99669" transform="translate(0,0)"/>
<path d="" fill="#BF9766" transform="translate(0,0)"/>
<path d="" fill="#C09965" transform="translate(0,0)"/>
<path d="" fill="#BC986A" transform="translate(0,0)"/>
<path d="" fill="#BD9665" transform="translate(0,0)"/>
<path d="" fill="#BC7200" transform="translate(0,0)"/>
<path d="" fill="#C37D08" transform="translate(0,0)"/>
<path d="" fill="#BE7500" transform="translate(0,0)"/>
<path d="" fill="#B96F00" transform="translate(0,0)"/>
<path d="" fill="#C17A08" transform="translate(0,0)"/>
<path d="" fill="#C07802" transform="translate(0,0)"/>
<path d="" fill="#BD7400" transform="translate(0,0)"/>
<path d="" fill="#AF6200" transform="translate(0,0)"/>
<path d="" fill="#B76C00" transform="translate(0,0)"/>
<path d="" fill="#BB7100" transform="translate(0,0)"/>
<path d="" fill="#BD7100" transform="translate(0,0)"/>
<path d="" fill="#BD7100" transform="translate(0,0)"/>
<path d="" fill="#B76C00" transform="translate(0,0)"/>
<path d="" fill="#BA6E00" transform="translate(0,0)"/>
<path d="" fill="#BD7100" transform="translate(0,0)"/>
</svg>
